{"title":"Brokeback Mountain-720p MP4 AAC x264 BRRip 2005-CC","uid":7535055,"size":2581232017,"categoryP":"video","categoryS":"hd___movies","magnet":"?xt=urn:btih:780d65ef9a5ce9c939bbe3f12d78df13103fcd34&amp;dn=Brokeback+Mountain-720p+MP4+AAC+x264+BRRip+2005-CC&amp;tr=udp%3A%2F%2Ftracker.openbittorrent.com%3A80&amp;tr=udp%3A%2F%2Fopen.demonii.com%3A1337&amp;tr=udp%3A%2F%2Ftracker.coppersurfer.tk%3A6969&amp;tr=udp%3A%2F%2Fexodus.desync.com%3A6969","seeders":0,"leechers":1,"uploader":"Caveman44","files":-1,"time":1345064469,"description":" &lt;a href=&quot;http://www.imdb.com/title/tt0388795/&quot; rel=&quot;nofollow&quot; target=&quot;_NEW&quot;&gt;http://www.imdb.com/title/tt0388795/&lt;/a&gt;\n\nSource: Brokeback.Mountain.2005.Bluray.720p.DTSHD.x264-CHD Thanks!\n\nSubs: Arabic, Brazilian, Dutch, English, Farsi-Persian, French, Portuguese, Romanian, Slovenian, Spanish and Turkish.\n\nSample and Screens included.\n\nGeneral\nComplete name                    : Brokeback Mountain-720p MP4 AAC x264 BRRip 2005-CC.mp4\nFormat                           : MPEG-4\nFormat profile                   : Base Media\nCodec ID                         : isom\nFile size                        : 2.38 GiB\nDuration                         : 2h 14mn\nOverall bit rate                 : 2 531 Kbps\nEncoded date                     : UTC 2012-07-31 18:44:53\n\nVideo\nID                               : 1\nFormat                           : AVC\nFormat/Info                      : Advanced Video Codec\nFormat profile                   : &lt;a class=&quot;__cf_email__&quot; href=&quot;/cdn-cgi/l/email-protection&quot; data-cfemail=&quot;ade5c4cac5ede19e839c&quot;&gt;[email&amp;#160;protected]&lt;/a&gt;&lt;script data-cfhash='f9e31' type=&quot;text/javascript&quot;&gt;\n/* &lt;![CDATA[ */!function(){try{var t=&quot;currentScript&quot;in document?document.currentScript:function(){for(var t=document.getElementsByTagName(&quot;script&quot;),e=t.length;e--;)if(t[e].getAttribute(&quot;data-cfhash&quot;))return t[e]}();if(t&amp;&amp;t.previousSibling){var e,r,n,i,c=t.previousSibling,a=c.getAttribute(&quot;data-cfemail&quot;);if(a){for(e=&quot;&quot;,r=parseInt(a.substr(0,2),16),n=2;a.length-n;n+=2)i=parseInt(a.substr(n,2),16)^r,e+=String.fromCharCode(i);e=document.createTextNode(e),c.parentNode.replaceChild(e,c)}t.parentNode.removeChild(t);}}catch(u){}}()/* ]]&gt; */&lt;/script&gt;\nFormat settings, CABAC           : Yes\nFormat settings, ReFrames        : 5 frames\nCodec ID                         : avc1\nCodec ID/Info                    : Advanced Video Coding\nDuration                         : 2h 14mn\nBit rate mode                    : Variable\nBit rate                         : 2 166 Kbps\nNominal bit rate                 : 2 191 Kbps\nMaximum bit rate                 : 18.7 Mbps\nWidth                            : 1 280 pixels\nHeight                           : 688 pixels\nDisplay aspect ratio             : 16:9\nFrame rate mode                  : Variable\nFrame rate                       : 23.976 fps\nMinimum frame rate               : 15.997 fps\nMaximum frame rate               : 24.390 fps\nResolution                       : 24 bits\nColorimetry                      : 4:2:0\nScan type                        : Progressive\nBits/(Pixel*Frame)               : 0.103\nStream size                      : 2.03 GiB (86%)\nWriting library                  : x264 core 112\n\nAudio\nID                               : 2\nFormat                           : AAC\nFormat/Info                      : Advanced Audio Codec\nFormat version                   : Version 4\nFormat profile                   : LC\nFormat settings, SBR             : No\nCodec ID                         : 40\nDuration                         : 2h 14mn\nBit rate mode                    : Variable\nBit rate                         : 360 Kbps\nMaximum bit rate                 : 742 Kbps\nChannel(s)                       : 6 channels\nChannel positions                : Front: L C R, Rear: L R, LFE\nSampling rate                    : 48.0 KHz\nResolution                       : 16 bits\nStream size                      : 346 MiB (14%)\nLanguage                         : English\n\nEnjoy...\n\nRequested by cmptrluvr's.","torrent":{"xt":"urn:btih:780d65ef9a5ce9c939bbe3f12d78df13103fcd34","amp;dn":"Brokeback+Mountain-720p+MP4+AAC+x264+BRRip+2005-CC","amp;tr":["udp%3A%2F%2Ftracker.openbittorrent.com%3A80","udp%3A%2F%2Fopen.demonii.com%3A1337","udp%3A%2F%2Ftracker.coppersurfer.tk%3A6969","udp%3A%2F%2Fexodus.desync.com%3A6969"],"infoHash":"780d65ef9a5ce9c939bbe3f12d78df13103fcd34","infoHashBuffer":{"type":"Buffer","data":[120,13,101,239,154,92,233,201,57,187,227,241,45,120,223,19,16,63,205,52]},"announce":[],"urlList":[]}}